<svg
  xmlns="http://www.w3.org/2000/svg"
  width="17.569"
  height="17.561"
  viewBox="0 0 -17.569 17.561"
><defs>
<style>.a{fill:#fff;}</style>
</defs>
<g transform="translate(17.569 -0.066) rotate(90)">
  <path
      class="a"
      d="M14.679,17.569a.631.631,0,0,1-.447-.185l-4.9-4.9L7.267,16.058a.632.632,0,0,1-1.134-.082L.111.866A.632.632,0,0,1,.931.045l15.1,6.025A.632.632,0,0,1,16.116,7.2L12.541,9.27l4.9,4.9a.632.632,0,0,1,0,.893l-2.317,2.318A.632.632,0,0,1,14.679,17.569ZM9.2,10.821a.632.632,0,0,1,.447.185l5.035,5.037L16.1,14.619,11.067,9.582a.632.632,0,0,1,.131-.993l3.16-1.827-12.529-5,5,12.535L8.65,11.137a.632.632,0,0,1,.465-.31A.644.644,0,0,1,9.2,10.821Z"
      transform="translate(0 0)"
    />
</g>
</svg>
